{"title":"Love.Lesson.2013.720p.HDRip.x264.AC3-LO","uid":9916854,"size":1239462540,"categoryP":"video","categoryS":"hd___movies","magnet":"?xt=urn:btih:ad5f38bfb855736f6568966503dfd2fee5bd0bec&amp;dn=Love.Lesson.2013.720p.HDRip.x264.AC3-LO&amp;tr=udp%3A%2F%2Ftracker.openbittorrent.com%3A80&amp;tr=udp%3A%2F%2Fopen.demonii.com%3A1337&amp;tr=udp%3A%2F%2Ftracker.coppersurfer.tk%3A6969&amp;tr=udp%3A%2F%2Fexodus.desync.com%3A6969","seeders":1,"leechers":1,"uploader":"loveteens","files":1,"time":1396951762,"description":"Complete name                      : Love.Lesson.2013.720p.HDRip.x264.AC3-LO.avi\nFormat                                   : AVI\nFormat/Info                              : Audio Video Interleave\nFormat profile                           : OpenDML\nFile size                                : 1.15 GiB\nDuration                                 : 1h 20mn\nOverall bit rate                         : 2 062 Kbps\nWriting application                      : PotEncoder\n\nVideo\nID                                       : 0\nFormat                                   : MPEG-4 Visual\nFormat profile                           : Simple@L1\nFormat settings, BVOP                    : No\nFormat settings, QPel                    : No\nFormat settings, GMC                     : No warppoints\nFormat settings, Matrix                  : Default (H.263)\nCodec ID                                 : XVID\nCodec ID/Hint                            : XviD\nDuration                                 : 1h 20mn\nBit rate                                 : 1 920 Kbps\nWidth                                    : 1 280 pixels\nHeight                                   : 720 pixels\nDisplay aspect ratio                     : 16:9\nFrame rate                               : 29.970 fps\nColor space                              : YUV\nChroma subsampling                       : 4:2:0\nBit depth                                : 8 bits\nScan type                                : Progressive\nCompression mode                         : Lossy\nBits/(Pixel*Frame)                       : 0.070\nStream size                              : 1.07 GiB (93%)\nWriting library                          : Lavc52.108.0\n\nAudio\nID                                       : 1\nFormat                                   : AC-3\nFormat/Info                              : Audio Coding 3\nMode extension                           : CM (complete main)\nFormat settings, Endianness              : Big\nCodec ID                                 : 2000\nDuration                                 : 1h 20mn\nBit rate mode                            : Constant\nBit rate                                 : 128 Kbps\nChannel(s)                               : 6 channels\nChannel positions                        : Front: L C R, Side: L R, LFE\nSampling rate                            : 44.1 KHz\nBit depth                                : 16 bits\nCompression mode                         : Lossy\nStream size                              : 73.4 MiB (6%)\nAlignment                                : Aligned on interleaves\nInterleave, duration                     : 35 ms (1.04 video frame)","torrent":{"xt":"urn:btih:ad5f38bfb855736f6568966503dfd2fee5bd0bec","amp;dn":"Love.Lesson.2013.720p.HDRip.x264.AC3-LO","amp;tr":["udp%3A%2F%2Ftracker.openbittorrent.com%3A80","udp%3A%2F%2Fopen.demonii.com%3A1337","udp%3A%2F%2Ftracker.coppersurfer.tk%3A6969","udp%3A%2F%2Fexodus.desync.com%3A6969"],"infoHash":"ad5f38bfb855736f6568966503dfd2fee5bd0bec","infoHashBuffer":{"type":"Buffer","data":[173,95,56,191,184,85,115,111,101,104,150,101,3,223,210,254,229,189,11,236]},"announce":[],"urlList":[]}}